<?xml version="1.0" encoding="utf-8"?>
<!-- Generator: Adobe Illustrator 15.0.0, SVG Export Plug-In . SVG Version: 6.00 Build 0)  -->
<!DOCTYPE svg PUBLIC "-//W3C//DTD SVG 1.1//EN" "http://www.w3.org/Graphics/SVG/1.1/DTD/svg11.dtd">
<svg version="1.1" id="Layer_1" xmlns="http://www.w3.org/2000/svg" xmlns:xlink="http://www.w3.org/1999/xlink" x="0px" y="0px"
	 width="382.458px" height="124.882px" viewBox="0 0 382.458 124.882" enable-background="new 0 0 382.458 124.882"
	 xml:space="preserve">
<g>
	<defs>
		<rect id="SVGID_1_" width="382.458" height="124.882"/>
	</defs>
	<clipPath id="SVGID_2_">
		<use xlink:href="#SVGID_1_"  overflow="visible"/>
	</clipPath>
	<path clip-path="url(#SVGID_2_)" fill="#1F1D59" d="M16.084,46.802l12.801-1.969c2.954-0.438,3.939-1.86,3.939-3.72
		c0-3.173-2.735-5.909-7.987-5.909c-5.799,0-8.972,3.939-9.301,7.988L1.095,40.237c0.656-7.768,7.877-18.053,23.852-18.053
		c17.616,0,24.072,9.848,24.072,21.008V69.78c0,4.267,0.547,7.878,0.656,8.424h-14.99c-0.109-0.437-0.547-2.406-0.547-6.127
		c-2.845,4.596-8.097,7.66-15.318,7.66C6.893,79.737,0,71.859,0,63.215C0,53.586,7.112,48.115,16.084,46.802 M32.825,56.869v-2.407
		l-10.285,1.64c-3.501,0.548-6.127,2.189-6.127,6.018c0,2.845,1.86,5.581,6.455,5.581C27.792,67.701,32.825,65.294,32.825,56.869"/>
	<path clip-path="url(#SVGID_2_)" fill="#1F1D59" d="M112.917,7.909H98.026v7.007c0,5.036-2.737,8.869-8.43,8.869h-2.738v0.008
		c-8.635,0.109-13.689,1.467-16.41,7.327v-7.335H54.353v54.417h16.643v-23.76c0-10.84,3.084-16.016,16.89-16.016h1.72
		c3.242,0,5.522-1.245,6.888-3.244v26.487c0,10.839,6.898,17.518,18.175,17.518c5.255,0,7.993-1.204,8.65-1.532V63.859
		c-0.986,0.218-2.628,0.547-4.38,0.547c-3.613,0-6.022-1.205-6.022-5.694V38.347h10.621V23.785h-10.621V7.909z"/>
	<path clip-path="url(#SVGID_2_)" fill="#1F1D59" d="M152.786,22.143c-14.125,0-27.154,11.168-27.154,28.686
		c0,18.285,13.358,29.015,28.358,29.015c13.796,0,22.446-7.883,25.073-17.299l-13.905-3.942c-1.533,4.27-4.927,7.117-10.949,7.117
		c-6.46,0-12.044-4.379-12.373-10.511h37.884c0.11-0.329,0.328-2.847,0.328-5.146C180.048,32.544,169.647,22.143,152.786,22.143
		 M142.166,44.479c0.328-4.051,3.832-9.198,10.839-9.198c7.884,0,10.731,5.037,10.95,9.198H142.166z"/>
	<polygon clip-path="url(#SVGID_2_)" fill="#1F1D59" points="238.077,23.785 216.508,23.785 199.974,42.07 199.974,7.909 
		183.332,7.909 183.332,78.202 199.974,78.202 199.974,64.844 205.34,59.041 218.15,78.202 238.515,78.202 216.836,46.668 	"/>
	<path clip-path="url(#SVGID_2_)" fill="#1F1D59" d="M249.907,0c-5.256,0-9.635,4.379-9.635,9.745c0,5.365,4.379,9.744,9.635,9.744
		c5.475,0,9.854-4.379,9.854-9.744C259.761,4.378,255.382,0,249.907,0"/>
	<rect x="241.695" y="23.785" clip-path="url(#SVGID_2_)" fill="#1F1D59" width="16.643" height="54.417"/>
	<path clip-path="url(#SVGID_2_)" fill="#1F1D59" d="M362.313,22.143c-7.337,0-12.593,2.408-16.864,8.54
		c-2.737-5.365-8.32-8.54-16.096-8.54c-5.409,0-11.735,2.566-14.866,6.696c-0.296,0.382-0.561,0.776-0.791,1.186v-6.241h-8.564
		h-7.284V54.77c0,5.474-3.505,9.307-9.088,9.307c-5.912,0-8.763-4.158-8.763-9.417V23.784h-16.641v34.38
		c0,11.605,7.443,21.241,20.692,21.241c5.475,0,11.716-1.969,14.562-6.679c0,1.425,0.22,4.49,0.438,5.478h6.083h9.331h0.573
		c-0.11-0.878-0.549-4.821-0.549-9.746V46.165c0.297-4.637,3.436-8.693,8.954-8.693c6.021,0,8.759,4.052,8.759,9.197v31.535h16.425
		V46.779c0-4.821,3.175-9.307,9.087-9.307c5.913,0,8.649,4.052,8.649,9.197v31.535h16.097V42.945
		C382.458,28.165,372.604,22.143,362.313,22.143"/>
	<polygon clip-path="url(#SVGID_2_)" fill="#1F1D59" points="13.88,106.211 13.88,124.393 8.732,124.393 8.732,106.211 
		1.629,106.211 1.629,101.291 21.016,101.291 21.016,106.211 	"/>
	<polygon clip-path="url(#SVGID_2_)" fill="#1F1D59" points="24.795,124.394 24.795,101.29 39.425,101.29 39.425,106.146 
		29.943,106.146 29.943,110.545 38.545,110.545 38.545,115.074 29.943,115.074 29.943,119.505 39.458,119.505 39.458,124.394 	"/>
	<path clip-path="url(#SVGID_2_)" fill="#1F1D59" d="M43.075,112.891c0-7.201,5.474-12.088,11.926-12.088
		c6.94,0,10.003,4.463,10.753,7.787l-4.856,1.531c-0.358-1.597-1.824-4.302-5.897-4.302c-3.096,0-6.582,2.217-6.582,7.071
		c0,4.333,3.193,6.842,6.647,6.842c4.008,0,5.604-2.671,6.06-4.333l4.921,1.401c-0.75,3.193-3.813,8.081-10.981,8.081
		C48.418,124.882,43.075,120.092,43.075,112.891"/>
	<polygon clip-path="url(#SVGID_2_)" fill="#1F1D59" points="84.586,124.394 84.586,115.204 75.364,115.204 75.364,124.394 
		70.216,124.394 70.216,101.29 75.364,101.29 75.364,110.35 84.586,110.35 84.586,101.29 89.767,101.29 89.767,124.394 	"/>
	<polygon clip-path="url(#SVGID_2_)" fill="#1F1D59" points="110.033,124.394 100.518,109.208 100.518,124.394 95.403,124.394 
		95.403,101.29 101.659,101.29 110.326,115.334 110.326,101.29 115.475,101.29 115.475,124.394 	"/>
	<path clip-path="url(#SVGID_2_)" fill="#1F1D59" d="M131.799,100.803c6.484,0,11.991,4.725,11.991,12.056
		c0,7.298-5.507,12.023-11.991,12.023c-6.517,0-12.023-4.726-12.023-12.023C119.775,105.527,125.282,100.803,131.799,100.803
		 M131.799,119.799c3.193,0,6.647-2.15,6.647-6.974c0-4.821-3.454-7.006-6.647-7.006c-3.226,0-6.68,2.185-6.68,7.006
		C125.119,117.648,128.573,119.799,131.799,119.799"/>
	<polygon clip-path="url(#SVGID_2_)" fill="#1F1D59" points="148.122,124.394 148.122,101.29 153.271,101.29 153.271,119.473 
		163.241,119.473 163.241,124.394 	"/>
	<path clip-path="url(#SVGID_2_)" fill="#1F1D59" d="M177.35,100.803c6.484,0,11.991,4.725,11.991,12.056
		c0,7.298-5.507,12.023-11.991,12.023c-6.517,0-12.023-4.726-12.023-12.023C165.327,105.527,170.833,100.803,177.35,100.803
		 M177.35,119.799c3.193,0,6.647-2.15,6.647-6.974c0-4.821-3.454-7.006-6.647-7.006c-3.226,0-6.68,2.185-6.68,7.006
		C170.67,117.648,174.124,119.799,177.35,119.799"/>
	<path clip-path="url(#SVGID_2_)" fill="#1F1D59" d="M210.846,124.394l-0.326-2.347c-1.01,1.466-3.193,2.835-6.484,2.835
		c-6.419,0-11.696-4.725-11.696-12.023c0-7.267,5.506-12.057,12.022-12.057c6.614,0,9.677,3.91,10.688,7.137l-4.954,1.727
		c-0.358-1.434-1.89-4.041-5.734-4.041c-3.128,0-6.81,2.086-6.81,7.234c0,4.822,3.192,7.331,6.939,7.331
		c3.813,0,5.409-2.477,5.702-3.779h-6.939v-4.367h11.762v12.351H210.846z"/>
	<polygon clip-path="url(#SVGID_2_)" fill="#1F1D59" points="216.678,101.291 222.706,101.291 227.431,109.86 232.22,101.291 
		237.955,101.291 229.842,114.749 229.842,124.394 224.694,124.394 224.694,114.749 	"/>
</g>
</svg>
