<?xml version="1.0" encoding="utf-8"?>
<!-- Generator: Adobe Illustrator 15.0.0, SVG Export Plug-In . SVG Version: 6.00 Build 0)  -->
<!DOCTYPE svg PUBLIC "-//W3C//DTD SVG 1.1//EN" "http://www.w3.org/Graphics/SVG/1.1/DTD/svg11.dtd">
<svg version="1.1" id="Layer_1" xmlns="http://www.w3.org/2000/svg" xmlns:xlink="http://www.w3.org/1999/xlink" x="0px" y="0px"
	 width="382.458px" height="124.882px" viewBox="0 0 382.458 124.882" enable-background="new 0 0 382.458 124.882"
	 xml:space="preserve">
<g>
	<defs>
		<rect id="SVGID_1_" width="382.458" height="124.882"/>
	</defs>
	<clipPath id="SVGID_2_">
		<use xlink:href="#SVGID_1_"  overflow="visible"/>
	</clipPath>
	<path clip-path="url(#SVGID_2_)" fill="#FFFFFF" d="M16.084,46.803l12.802-1.97c2.954-0.438,3.939-1.86,3.939-3.72
		c0-3.173-2.735-5.909-7.988-5.909c-5.799,0-8.971,3.94-9.3,7.988L1.095,40.238c0.656-7.769,7.877-18.054,23.852-18.054
		c17.616,0,24.071,9.848,24.071,21.008V69.78c0,4.267,0.547,7.878,0.657,8.425h-14.99c-0.11-0.438-0.548-2.407-0.548-6.128
		c-2.844,4.596-8.096,7.66-15.317,7.66C6.893,79.737,0,71.859,0,63.215C0,53.587,7.112,48.116,16.084,46.803 M32.825,56.869v-2.407
		L22.54,56.103c-3.502,0.547-6.128,2.188-6.128,6.017c0,2.846,1.86,5.581,6.456,5.581C27.792,67.701,32.825,65.294,32.825,56.869"/>
	<path clip-path="url(#SVGID_2_)" fill="#FFFFFF" d="M112.917,7.909H98.025v7.007c0,5.037-2.737,8.869-8.43,8.869h-2.738v0.008
		c-8.635,0.109-13.689,1.468-16.41,7.328v-7.336H54.354v54.417h16.642V54.443c0-10.84,3.084-16.016,16.89-16.016h1.721
		c3.241,0,5.521-1.245,6.887-3.245v26.487c0,10.84,6.898,17.519,18.175,17.519c5.255,0,7.993-1.204,8.65-1.532V63.859
		c-0.985,0.219-2.628,0.547-4.38,0.547c-3.613,0-6.022-1.205-6.022-5.693V38.347h10.621V23.785h-10.621V7.909z"/>
	<path clip-path="url(#SVGID_2_)" fill="#FFFFFF" d="M152.786,22.143c-14.124,0-27.154,11.168-27.154,28.687
		c0,18.285,13.358,29.015,28.358,29.015c13.796,0,22.446-7.884,25.073-17.3l-13.905-3.941c-1.533,4.27-4.927,7.116-10.949,7.116
		c-6.46,0-12.044-4.379-12.373-10.511h37.884c0.11-0.329,0.329-2.846,0.329-5.146C180.049,32.544,169.647,22.143,152.786,22.143
		 M142.165,44.479c0.328-4.051,3.832-9.197,10.84-9.197c7.883,0,10.73,5.036,10.949,9.197H142.165z"/>
	<polygon clip-path="url(#SVGID_2_)" fill="#FFFFFF" points="238.077,23.785 216.508,23.785 199.975,42.07 199.975,7.909 
		183.331,7.909 183.331,78.202 199.975,78.202 199.975,64.844 205.339,59.041 218.15,78.202 238.516,78.202 216.836,46.668 	"/>
	<path clip-path="url(#SVGID_2_)" fill="#FFFFFF" d="M249.907,0c-5.256,0-9.636,4.38-9.636,9.745c0,5.365,4.38,9.745,9.636,9.745
		c5.475,0,9.854-4.38,9.854-9.745C259.762,4.379,255.382,0,249.907,0"/>
	<rect x="241.695" y="23.785" clip-path="url(#SVGID_2_)" fill="#FFFFFF" width="16.643" height="54.417"/>
	<path clip-path="url(#SVGID_2_)" fill="#FFFFFF" d="M362.313,22.144c-7.337,0-12.593,2.408-16.863,8.54
		c-2.737-5.365-8.321-8.54-16.096-8.54c-5.409,0-11.736,2.566-14.866,6.696c-0.297,0.382-0.562,0.775-0.792,1.185v-6.241h-8.564
		h-7.285V54.77c0,5.474-3.504,9.308-9.087,9.308c-5.912,0-8.763-4.159-8.763-9.417V23.783h-16.64v34.381
		c0,11.605,7.442,21.241,20.691,21.241c5.475,0,11.715-1.97,14.563-6.679c0,1.425,0.219,4.49,0.438,5.477h6.083h9.331h0.573
		c-0.11-0.877-0.548-4.819-0.548-9.745V46.166c0.296-4.637,3.435-8.693,8.953-8.693c6.021,0,8.759,4.052,8.759,9.197v31.534h16.425
		V46.778c0-4.82,3.175-9.306,9.087-9.306c5.913,0,8.649,4.052,8.649,9.197v31.534h16.097V42.945
		C382.458,28.165,372.604,22.144,362.313,22.144"/>
	<polygon clip-path="url(#SVGID_2_)" fill="#FFFFFF" points="13.88,106.211 13.88,124.394 8.732,124.394 8.732,106.211 
		1.628,106.211 1.628,101.291 21.016,101.291 21.016,106.211 	"/>
	<polygon clip-path="url(#SVGID_2_)" fill="#FFFFFF" points="24.795,124.393 24.795,101.291 39.425,101.291 39.425,106.146 
		29.943,106.146 29.943,110.545 38.546,110.545 38.546,115.074 29.943,115.074 29.943,119.505 39.458,119.505 39.458,124.393 	"/>
	<path clip-path="url(#SVGID_2_)" fill="#FFFFFF" d="M43.074,112.891c0-7.201,5.474-12.089,11.926-12.089
		c6.94,0,10.003,4.464,10.753,7.788l-4.855,1.531c-0.359-1.597-1.825-4.301-5.898-4.301c-3.095,0-6.582,2.216-6.582,7.07
		c0,4.333,3.193,6.843,6.647,6.843c4.008,0,5.605-2.672,6.061-4.333l4.92,1.4c-0.75,3.193-3.812,8.081-10.981,8.081
		C48.418,124.882,43.074,120.092,43.074,112.891"/>
	<polygon clip-path="url(#SVGID_2_)" fill="#FFFFFF" points="84.585,124.393 84.585,115.204 75.364,115.204 75.364,124.393 
		70.215,124.393 70.215,101.291 75.364,101.291 75.364,110.349 84.585,110.349 84.585,101.291 89.767,101.291 89.767,124.393 	"/>
	<polygon clip-path="url(#SVGID_2_)" fill="#FFFFFF" points="110.033,124.393 100.518,109.209 100.518,124.393 95.403,124.393 
		95.403,101.291 101.659,101.291 110.326,115.335 110.326,101.291 115.474,101.291 115.474,124.393 	"/>
	<path clip-path="url(#SVGID_2_)" fill="#FFFFFF" d="M131.799,100.802c6.484,0,11.991,4.725,11.991,12.057
		c0,7.298-5.507,12.023-11.991,12.023c-6.517,0-12.023-4.726-12.023-12.023C119.776,105.526,125.282,100.802,131.799,100.802
		 M131.799,119.799c3.193,0,6.647-2.151,6.647-6.974s-3.454-7.006-6.647-7.006c-3.226,0-6.68,2.184-6.68,7.006
		S128.573,119.799,131.799,119.799"/>
	<polygon clip-path="url(#SVGID_2_)" fill="#FFFFFF" points="148.123,124.393 148.123,101.291 153.271,101.291 153.271,119.473 
		163.242,119.473 163.242,124.393 	"/>
	<path clip-path="url(#SVGID_2_)" fill="#FFFFFF" d="M177.35,100.802c6.484,0,11.991,4.725,11.991,12.057
		c0,7.298-5.507,12.023-11.991,12.023c-6.517,0-12.023-4.726-12.023-12.023C165.327,105.526,170.833,100.802,177.35,100.802
		 M177.35,119.799c3.193,0,6.647-2.151,6.647-6.974s-3.454-7.006-6.647-7.006c-3.226,0-6.68,2.184-6.68,7.006
		S174.124,119.799,177.35,119.799"/>
	<path clip-path="url(#SVGID_2_)" fill="#FFFFFF" d="M210.846,124.393l-0.326-2.346c-1.01,1.466-3.193,2.835-6.484,2.835
		c-6.419,0-11.697-4.725-11.697-12.024c0-7.266,5.507-12.056,12.023-12.056c6.614,0,9.677,3.91,10.688,7.136l-4.952,1.728
		c-0.358-1.435-1.891-4.041-5.735-4.041c-3.128,0-6.81,2.086-6.81,7.233c0,4.823,3.192,7.332,6.939,7.332
		c3.813,0,5.41-2.477,5.703-3.779h-6.941v-4.366h11.764v12.349H210.846z"/>
	<polygon clip-path="url(#SVGID_2_)" fill="#FFFFFF" points="216.678,101.291 222.706,101.291 227.431,109.86 232.22,101.291 
		237.955,101.291 229.842,114.748 229.842,124.393 224.693,124.393 224.693,114.748 	"/>
</g>
</svg>
